# xmcd CD database file
#
# Track frame offsets:
#	150
#	7938
#	26141
#	43251
#	63674
#	86887
#	106197
#	127880
#	141630
#	151311
#	169714
#	189937
#	210172
#	237856
#	252899
#	276069
#
# Disc length: 3940 seconds
#
# Revision: 0
# Processed by: cddbd v1.5PL3 Copyright (c) Steve Scherf et al.
# Submitted via: CDex 1.50beta10
#
DISCID=d60f6210
DTITLE=?????? - Live at Gloria Chapel The Great American Songbook
DYEAR=1900
DGENRE=Jazz
TTITLE0=Prologue
TTITLE1=So Far Away
TTITLE2=Fire And Rain
TTITLE3=Feel Like Makin' Love
TTITLE4=Candy Says
TTITLE5=Jesse
TTITLE6=Do It Again
TTITLE7=Tennessee Waltz
TTITLE8=That Old Feeling
TTITLE9=Still Crazy After All These Years
TTITLE10=Tenderly
TTITLE11=The First Time Ever I Saw Your Face
TTITLE12=Birds
TTITLE13=I Saw The Light
TTITLE14=Yesterday Once More
TTITLE15=Ending
EXTD=
EXTT0=
EXTT1=
EXTT2=
EXTT3=
EXTT4=
EXTT5=
EXTT6=
EXTT7=
EXTT8=
EXTT9=
EXTT10=
EXTT11=
EXTT12=
EXTT13=
EXTT14=
EXTT15=
PLAYORDER=
